<?xml version="1.0" encoding="utf-8"?>
<!-- Generator: Adobe Illustrator 24.0.2, SVG Export Plug-In . SVG Version: 6.00 Build 0)  -->
<svg width="54px" height="54px"  version="1.1" xmlns="http://www.w3.org/2000/svg" xmlns:xlink="http://www.w3.org/1999/xlink" x="0px" y="0px"
	 viewBox="0 0 515.91 728.5" style="enable-background:new 0 0 515.91 728.5;" xml:space="preserve">
<style type="text/css">
	.st0{fill:none;}
	.st1{fill:none;stroke:#FFFFFF;stroke-width:6;stroke-miterlimit:10;}
	.st2{fill:none;stroke:#FFFFFF;stroke-width:5;stroke-miterlimit:10;}
	.st3{fill:#FFFFFF;stroke:#FFFFFF;stroke-miterlimit:10;}
	.st4{fill:none;stroke:#FFFFFF;stroke-width: 5;stroke-miterlimit:10;}
</style>
<g id="Layer_3">
	<rect x="158.76" y="311.13" class="st0" width="173.86" height="175.33"/>
</g>
<g id="Layer_5">
</g>
<g id="Layer_4">
</g>
<g id="Layer_1">
	<rect x="119.95" y="349.13" class="st1" width="175" height="175"/>
	<line class="st2" x1="333.95" y1="308.72" x2="333.95" y2="488.72"/>
	<line class="st2" x1="334.45" y1="487.02" x2="295.64" y2="525"/>
	<line class="st2" x1="294.95" y1="349.47" x2="333.95" y2="310.47"/>
	<line class="st2" x1="158.37" y1="310.13" x2="119.37" y2="349.13"/>
	<line class="st2" x1="156.51" y1="310.97" x2="336.1" y2="310.97"/>
	<line class="st2" x1="332.62" y1="486.47" x2="154.95" y2="486.47"/>
	<line class="st2" x1="157.29" y1="349.8" x2="157.29" y2="486.47"/>
	<g>
		<path class="st3" d="M164.88,231.86v32.4l30.39-32.4h9.42l-32.04,33.69l32.85,36.21h-9.87l-30.75-34.32v34.32h-7.71v-69.91H164.88z"/>
		<path class="st3" d="M298.41,231.86v47.32c0,2.6-0.2,4.96-0.6,7.1c-0.4,2.13-0.97,4-1.71,5.61c-0.74,1.61-1.68,3.02-2.82,4.23
			c-1.14,1.21-2.39,2.21-3.75,3.01c-1.36,0.8-2.92,1.46-4.68,1.97c-1.76,0.51-3.58,0.87-5.46,1.08c-1.88,0.21-3.95,0.31-6.21,0.31
			c-3.18,0-6.01-0.21-8.48-0.64c-2.47-0.43-4.78-1.18-6.93-2.25c-2.15-1.07-3.93-2.48-5.33-4.22c-1.4-1.74-2.5-3.97-3.29-6.69
			s-1.18-5.89-1.18-9.51v-47.32h7.62v48.09c0,5.5,1.38,9.53,4.13,12.09c2.75,2.56,7.24,3.84,13.46,3.84
			c6.26,0,10.76-1.28,13.49-3.84s4.1-6.59,4.1-12.09v-48.09H298.41z"/>
		<path class="st3" d="M353.69,273.2v28.56h-7.71v-68.98c6.66-1.1,13.78-1.65,21.36-1.65c2.3,0,4.38,0.07,6.24,0.21
			c1.86,0.14,3.75,0.41,5.67,0.81c1.92,0.4,3.62,0.93,5.09,1.58c1.47,0.65,2.87,1.52,4.18,2.6c1.32,1.08,2.41,2.35,3.26,3.79
			c0.85,1.45,1.52,3.2,2.01,5.24c0.49,2.04,0.74,4.32,0.74,6.84c0,3.46-0.43,6.46-1.29,9c-0.86,2.54-2.03,4.6-3.5,6.18
			c-1.47,1.58-3.35,2.85-5.64,3.81c-2.29,0.96-4.7,1.62-7.22,1.97c-2.52,0.35-5.43,0.52-8.73,0.52
			C364.65,273.68,359.83,273.52,353.69,273.2z M353.69,238.37v28.38c3.9,0.42,8.45,0.63,13.65,0.63c2.62,0,4.9-0.13,6.84-0.4
			c1.94-0.27,3.74-0.75,5.39-1.43c1.65-0.68,2.99-1.59,4.02-2.73c1.03-1.14,1.83-2.59,2.4-4.37c0.57-1.77,0.86-3.86,0.86-6.26
			c0-5.3-1.45-9.08-4.33-11.36c-2.89-2.27-7.83-3.41-14.81-3.41C363.04,237.44,358.37,237.75,353.69,238.37z"/>
	</g>
	<g>
		<path class="st3" d="M376.37,309.19v28.39c0,1.56-0.12,2.98-0.36,4.26s-0.58,2.4-1.03,3.37c-0.44,0.97-1.01,1.81-1.69,2.54
			c-0.68,0.73-1.43,1.33-2.25,1.81c-0.82,0.48-1.75,0.87-2.81,1.18c-1.06,0.31-2.15,0.52-3.28,0.65c-1.13,0.13-2.37,0.19-3.73,0.19
			c-1.91,0-3.6-0.13-5.09-0.39s-2.87-0.71-4.16-1.35c-1.29-0.64-2.36-1.49-3.2-2.53c-0.84-1.04-1.5-2.38-1.97-4.01
			c-0.47-1.63-0.71-3.53-0.71-5.71v-28.39h4.57v28.86c0,3.3,0.83,5.72,2.48,7.25c1.65,1.54,4.34,2.3,8.07,2.3
			c3.76,0,6.45-0.77,8.09-2.3c1.64-1.54,2.46-3.95,2.46-7.25v-28.86H376.37z"/>
	</g>
	<g>
		<path class="st3" d="M346.03,406.91v-40.87c3.95-0.64,8.2-0.95,12.75-0.95c1.55,0,2.97,0.07,4.28,0.21
			c1.3,0.14,2.49,0.36,3.56,0.66c1.07,0.3,2.05,0.65,2.92,1.06c0.87,0.41,1.65,0.91,2.34,1.5c0.69,0.59,1.29,1.23,1.81,1.92
			c0.52,0.68,0.96,1.47,1.34,2.37c0.38,0.89,0.69,1.82,0.95,2.77s0.45,2.03,0.6,3.22c0.15,1.19,0.26,2.4,0.32,3.63
			c0.06,1.22,0.09,2.58,0.09,4.07s-0.03,2.84-0.09,4.07c-0.06,1.22-0.17,2.43-0.32,3.63c-0.15,1.19-0.35,2.27-0.6,3.22
			s-0.57,1.88-0.95,2.77c-0.38,0.89-0.83,1.68-1.34,2.37c-0.52,0.68-1.12,1.32-1.81,1.92c-0.69,0.59-1.47,1.09-2.34,1.5
			c-0.87,0.41-1.84,0.76-2.92,1.06s-2.26,0.52-3.56,0.66c-1.3,0.14-2.73,0.21-4.28,0.21C354.26,407.9,350.02,407.57,346.03,406.91z
			 M357.54,368.96c-1.79,0-4.09,0.17-6.9,0.52v34.01c2.72,0.36,5.02,0.54,6.9,0.54c5.47,0,9.33-1.1,11.57-3.31
			c1.55-1.52,2.52-3.79,2.92-6.8c0.21-1.52,0.31-4,0.31-7.42c0-3.55-0.12-6.11-0.34-7.67c-0.42-2.99-1.44-5.23-3.06-6.73
			C366.67,370,362.88,368.96,357.54,368.96z"/>
	</g>
	<g>
		<path class="st3" d="M351.29,442.56v-21.04h4.63v17.71l9.07-6.52v3.98l-9.07,6.5v8.53c0,1.16,0.04,2.13,0.13,2.89
			c0.08,0.76,0.25,1.46,0.5,2.1c0.25,0.64,0.58,1.13,0.97,1.49c0.39,0.35,0.95,0.65,1.65,0.89c0.7,0.24,1.5,0.4,2.39,0.49
			s2.01,0.13,3.36,0.13h9.74v3.71c-2.9,0.11-6.1,0.16-9.58,0.16c-0.94,0-1.72-0.01-2.36-0.03c-0.63-0.02-1.38-0.06-2.23-0.12
			c-0.85-0.06-1.57-0.15-2.15-0.27s-1.22-0.29-1.92-0.51c-0.7-0.22-1.27-0.49-1.74-0.8c-0.46-0.31-0.92-0.7-1.39-1.17
			c-0.46-0.47-0.83-1-1.1-1.6c-0.27-0.6-0.49-1.3-0.66-2.1c-0.17-0.8-0.25-1.68-0.25-2.66v-7.81l-5.1,3.65v-3.94L351.29,442.56z"/>
	</g>
	<g>
		<path class="st3" d="M368.23,525.71c-1.61,0.35-3.47,0.52-5.6,0.52s-3.99-0.17-5.6-0.52s-3.02-0.9-4.23-1.67
			c-1.21-0.76-2.22-1.7-3.03-2.81c-0.81-1.11-1.47-2.48-1.97-4.12c-0.5-1.64-0.86-3.44-1.08-5.42c-0.22-1.97-0.32-4.26-0.32-6.87
			c0-2.6,0.11-4.89,0.32-6.87c0.22-1.97,0.58-3.78,1.08-5.42c0.5-1.64,1.16-3.01,1.97-4.12c0.81-1.11,1.82-2.05,3.03-2.81
			c1.21-0.76,2.62-1.32,4.23-1.66c1.61-0.35,3.47-0.52,5.6-0.52s3.99,0.17,5.6,0.52c1.61,0.35,3.02,0.9,4.23,1.66
			c1.21,0.76,2.22,1.7,3.03,2.81c0.81,1.11,1.46,2.48,1.96,4.12c0.5,1.64,0.85,3.44,1.07,5.42c0.22,1.97,0.32,4.26,0.32,6.87
			c0,2.6-0.11,4.89-0.32,6.87c-0.22,1.97-0.57,3.78-1.07,5.42c-0.5,1.64-1.15,3.01-1.96,4.12c-0.81,1.11-1.82,2.05-3.03,2.81
			C371.25,524.81,369.84,525.36,368.23,525.71z M362.63,522.33c1.21,0,2.32-0.09,3.31-0.28c1-0.19,1.87-0.43,2.62-0.73
			s1.41-0.72,1.99-1.27c0.58-0.55,1.06-1.09,1.46-1.63c0.4-0.54,0.73-1.24,1-2.1c0.27-0.86,0.48-1.65,0.63-2.39
			c0.15-0.73,0.27-1.66,0.35-2.79s0.13-2.13,0.15-3.01c0.02-0.88,0.03-1.98,0.03-3.31c0-1.34-0.01-2.45-0.03-3.33
			c-0.02-0.88-0.07-1.88-0.15-3.01s-0.2-2.06-0.35-2.79c-0.15-0.73-0.36-1.53-0.63-2.39c-0.27-0.86-0.6-1.55-1-2.09
			c-0.4-0.53-0.88-1.07-1.46-1.62s-1.24-0.97-1.99-1.27s-1.62-0.54-2.62-0.73c-1-0.19-2.1-0.28-3.31-0.28
			c-1.22,0-2.33,0.09-3.33,0.28c-1,0.19-1.87,0.43-2.62,0.72s-1.41,0.72-1.99,1.27c-0.58,0.55-1.06,1.09-1.45,1.63
			c-0.39,0.53-0.72,1.23-1,2.1c-0.28,0.86-0.49,1.66-0.64,2.38c-0.15,0.72-0.26,1.65-0.34,2.79s-0.13,2.15-0.14,3.02
			c-0.02,0.87-0.03,1.98-0.03,3.32c0,1.2,0.01,2.2,0.03,2.99c0.02,0.79,0.05,1.71,0.11,2.75c0.05,1.04,0.14,1.9,0.26,2.57
			c0.12,0.68,0.28,1.43,0.47,2.26c0.19,0.83,0.44,1.51,0.74,2.03c0.3,0.53,0.66,1.08,1.07,1.67c0.41,0.58,0.9,1.05,1.47,1.4
			c0.56,0.35,1.21,0.67,1.93,0.98c0.72,0.31,1.54,0.52,2.45,0.66C360.52,522.26,361.53,522.33,362.63,522.33z"/>
	</g>
	<polygon class="st4" points="123.9,347.14 293.76,348.13 328.26,313.13 158.76,311.13 	"/>
	<rect x="190.51" y="382.4" class="st2" width="71.47" height="71.47"/>
</g>
<g id="Layer_2">
	<polygon class="st0" points="123.69,341.16 109.99,355.11 109.99,349.62 	"/>
	<polygon class="st0" points="300.93,523.35 293.19,530.92 301.26,530.34 	"/>
</g>
</svg>
