<?xml version="1.0" encoding="utf-8"?>
<!-- Generator: Adobe Illustrator 24.0.2, SVG Export Plug-In . SVG Version: 6.00 Build 0)  -->
<svg width="54px" height="54px"  version="1.1" xmlns="http://www.w3.org/2000/svg" xmlns:xlink="http://www.w3.org/1999/xlink" x="0px" y="0px"
	 viewBox="0 0 515.91 728.5" style="enable-background:new 0 0 515.91 728.5;" xml:space="preserve">
<style type="text/css">
	.st0{fill:none;}
	.st1{fill:none;stroke:#FFFFFF;stroke-width:6;stroke-miterlimit:10;}
	.st2{fill:none;stroke:#FFFFFF;stroke-width:5;stroke-miterlimit:10;}
	.st3{fill:#FFFFFF;stroke:#FFFFFF;stroke-miterlimit:10;}
	.st4{fill:none;stroke:#FFFFFF;stroke-width: 5;stroke-miterlimit:10;}
</style>
<g id="Layer_3">
	<rect x="158.76" y="311.13" class="st0" width="173.86" height="175.33"/>
</g>
<g id="Layer_5">
</g>
<g id="Layer_4">
</g>
<g id="Layer_1">
	<rect x="119.95" y="349.13" class="st1" width="175" height="175"/>
	<line class="st2" x1="333.95" y1="308.72" x2="333.95" y2="488.72"/>
	<line class="st2" x1="334.45" y1="487.02" x2="295.64" y2="525"/>
	<line class="st2" x1="294.95" y1="349.47" x2="333.95" y2="310.47"/>
	<line class="st2" x1="158.37" y1="310.13" x2="119.37" y2="349.13"/>
	<line class="st2" x1="156.51" y1="310.97" x2="336.1" y2="310.97"/>
	<line class="st2" x1="332.62" y1="486.47" x2="154.95" y2="486.47"/>
	<line class="st2" x1="157.29" y1="349.8" x2="157.29" y2="486.47"/>


	<polygon class="st4" points="123.9,347.14 293.76,348.13 328.26,313.13 158.76,311.13 	"/>
	<rect x="190.51" y="382.4" class="st2" width="71.47" height="71.47"/>
</g>
<g id="Layer_2">
	<polygon class="st0" points="123.69,341.16 109.99,355.11 109.99,349.62 	"/>
	<polygon class="st0" points="300.93,523.35 293.19,530.92 301.26,530.34 	"/>
</g>
</svg>
